<mxfile host="app.diagrams.net" modified="2024-01-28T11:03:51.226Z" agent="Mozilla/5.0 (Windows NT 10.0; Win64; x64) AppleWebKit/537.36 (KHTML, like Gecko) Chrome/121.0.0.0 Safari/537.36" etag="Rmg_IKJzfjJqm3f7gqNo" version="23.0.2" type="device">
  <diagram name="Page-1" id="0xW-3294jDcgCvJZdJ96">
    <mxGraphModel dx="4536" dy="1491" grid="1" gridSize="10" guides="1" tooltips="1" connect="1" arrows="1" fold="1" page="1" pageScale="1" pageWidth="850" pageHeight="1100" math="0" shadow="0">
      <root>
        <mxCell id="0" />
        <mxCell id="1" parent="0" />
        <mxCell id="hDzDasUuzD6aXPVgEZul-1" value="" style="group" vertex="1" connectable="0" parent="1">
          <mxGeometry x="410" y="320" width="850" height="700" as="geometry" />
        </mxCell>
        <mxCell id="hDzDasUuzD6aXPVgEZul-2" value="" style="rounded=0;whiteSpace=wrap;html=1;" vertex="1" parent="hDzDasUuzD6aXPVgEZul-1">
          <mxGeometry width="850" height="700" as="geometry" />
        </mxCell>
        <mxCell id="hDzDasUuzD6aXPVgEZul-3" value="" style="dashed=0;outlineConnect=0;html=1;align=center;labelPosition=center;verticalLabelPosition=bottom;verticalAlign=top;shape=mxgraph.weblogos.github" vertex="1" parent="hDzDasUuzD6aXPVgEZul-1">
          <mxGeometry x="355" y="60" width="75" height="75" as="geometry" />
        </mxCell>
        <mxCell id="hDzDasUuzD6aXPVgEZul-4" value="" style="rounded=0;whiteSpace=wrap;html=1;container=0;" vertex="1" parent="hDzDasUuzD6aXPVgEZul-1">
          <mxGeometry x="70" y="320" width="30" height="30" as="geometry" />
        </mxCell>
        <mxCell id="hDzDasUuzD6aXPVgEZul-5" value="" style="rounded=0;whiteSpace=wrap;html=1;container=0;" vertex="1" parent="hDzDasUuzD6aXPVgEZul-1">
          <mxGeometry x="40" y="270" width="250" height="360" as="geometry" />
        </mxCell>
        <mxCell id="hDzDasUuzD6aXPVgEZul-6" style="edgeStyle=orthogonalEdgeStyle;rounded=0;orthogonalLoop=1;jettySize=auto;html=1;" edge="1" parent="hDzDasUuzD6aXPVgEZul-1" source="hDzDasUuzD6aXPVgEZul-8" target="hDzDasUuzD6aXPVgEZul-3">
          <mxGeometry relative="1" as="geometry">
            <Array as="points">
              <mxPoint x="20" y="355" />
              <mxPoint x="20" y="117" />
            </Array>
          </mxGeometry>
        </mxCell>
        <mxCell id="hDzDasUuzD6aXPVgEZul-7" value="&lt;font style=&quot;font-size: 18px;&quot;&gt;Push&lt;/font&gt;" style="edgeLabel;html=1;align=center;verticalAlign=middle;resizable=0;points=[];" vertex="1" connectable="0" parent="hDzDasUuzD6aXPVgEZul-6">
          <mxGeometry x="0.6494" y="1" relative="1" as="geometry">
            <mxPoint as="offset" />
          </mxGeometry>
        </mxCell>
        <mxCell id="hDzDasUuzD6aXPVgEZul-8" value="Node.js&lt;br&gt;Application" style="whiteSpace=wrap;html=1;aspect=fixed;movable=1;resizable=1;rotatable=1;deletable=1;editable=1;locked=0;connectable=1;container=0;" vertex="1" parent="hDzDasUuzD6aXPVgEZul-1">
          <mxGeometry x="70" y="320" width="70" height="70" as="geometry" />
        </mxCell>
        <mxCell id="hDzDasUuzD6aXPVgEZul-9" value="X&#39;s&amp;nbsp; Local Env" style="text;html=1;strokeColor=none;fillColor=none;align=center;verticalAlign=middle;whiteSpace=wrap;rounded=0;container=0;" vertex="1" parent="hDzDasUuzD6aXPVgEZul-1">
          <mxGeometry x="110" y="280" width="105" height="30" as="geometry" />
        </mxCell>
        <mxCell id="hDzDasUuzD6aXPVgEZul-10" value="Node.js&lt;br&gt;RunTime" style="whiteSpace=wrap;html=1;aspect=fixed;movable=1;resizable=1;rotatable=1;deletable=1;editable=1;locked=0;connectable=1;container=0;" vertex="1" parent="hDzDasUuzD6aXPVgEZul-1">
          <mxGeometry x="190" y="320" width="70" height="70" as="geometry" />
        </mxCell>
        <mxCell id="hDzDasUuzD6aXPVgEZul-11" value="MongoDB&lt;br&gt;Databse" style="whiteSpace=wrap;html=1;aspect=fixed;movable=1;resizable=1;rotatable=1;deletable=1;editable=1;locked=0;connectable=1;direction=south;container=0;" vertex="1" parent="hDzDasUuzD6aXPVgEZul-1">
          <mxGeometry x="70" y="410" width="70" height="70" as="geometry" />
        </mxCell>
        <mxCell id="hDzDasUuzD6aXPVgEZul-12" value="Rabbit MQ" style="whiteSpace=wrap;html=1;aspect=fixed;movable=1;resizable=1;rotatable=1;deletable=1;editable=1;locked=0;connectable=1;direction=south;container=0;" vertex="1" parent="hDzDasUuzD6aXPVgEZul-1">
          <mxGeometry x="190" y="410" width="70" height="70" as="geometry" />
        </mxCell>
        <mxCell id="hDzDasUuzD6aXPVgEZul-13" value="Redis" style="whiteSpace=wrap;html=1;aspect=fixed;movable=1;resizable=1;rotatable=1;deletable=1;editable=1;locked=0;connectable=1;direction=south;container=0;" vertex="1" parent="hDzDasUuzD6aXPVgEZul-1">
          <mxGeometry x="70" y="490" width="70" height="70" as="geometry" />
        </mxCell>
        <mxCell id="hDzDasUuzD6aXPVgEZul-14" value=".git" style="text;html=1;strokeColor=none;fillColor=none;align=center;verticalAlign=middle;whiteSpace=wrap;rounded=0;container=0;" vertex="1" parent="hDzDasUuzD6aXPVgEZul-1">
          <mxGeometry x="50" y="310" width="60" height="30" as="geometry" />
        </mxCell>
        <mxCell id="hDzDasUuzD6aXPVgEZul-15" value="" style="rounded=0;whiteSpace=wrap;html=1;container=0;" vertex="1" parent="hDzDasUuzD6aXPVgEZul-1">
          <mxGeometry x="70" y="410" width="40" height="20" as="geometry" />
        </mxCell>
        <mxCell id="hDzDasUuzD6aXPVgEZul-16" value="v3" style="text;html=1;strokeColor=none;fillColor=none;align=center;verticalAlign=middle;whiteSpace=wrap;rounded=0;container=0;" vertex="1" parent="hDzDasUuzD6aXPVgEZul-1">
          <mxGeometry x="55" y="400" width="60" height="30" as="geometry" />
        </mxCell>
        <mxCell id="hDzDasUuzD6aXPVgEZul-17" value="&lt;font style=&quot;font-size: 14px;&quot;&gt;Config&lt;/font&gt;" style="whiteSpace=wrap;html=1;aspect=fixed;" vertex="1" parent="hDzDasUuzD6aXPVgEZul-1">
          <mxGeometry x="350" y="190" width="80" height="80" as="geometry" />
        </mxCell>
        <mxCell id="hDzDasUuzD6aXPVgEZul-18" style="edgeStyle=orthogonalEdgeStyle;rounded=0;orthogonalLoop=1;jettySize=auto;html=1;entryX=0;entryY=0.5;entryDx=0;entryDy=0;" edge="1" parent="hDzDasUuzD6aXPVgEZul-1" source="hDzDasUuzD6aXPVgEZul-5" target="hDzDasUuzD6aXPVgEZul-17">
          <mxGeometry relative="1" as="geometry" />
        </mxCell>
        <mxCell id="hDzDasUuzD6aXPVgEZul-19" value="" style="group" vertex="1" connectable="0" parent="hDzDasUuzD6aXPVgEZul-1">
          <mxGeometry x="335" y="310" width="110" height="110" as="geometry" />
        </mxCell>
        <mxCell id="hDzDasUuzD6aXPVgEZul-20" value="" style="whiteSpace=wrap;html=1;aspect=fixed;" vertex="1" parent="hDzDasUuzD6aXPVgEZul-19">
          <mxGeometry x="10" y="10" width="90" height="90" as="geometry" />
        </mxCell>
        <mxCell id="hDzDasUuzD6aXPVgEZul-21" value="" style="image;sketch=0;aspect=fixed;html=1;points=[];align=center;fontSize=12;image=img/lib/mscae/Docker.svg;" vertex="1" parent="hDzDasUuzD6aXPVgEZul-19">
          <mxGeometry x="30" y="35" width="50" height="41" as="geometry" />
        </mxCell>
        <mxCell id="hDzDasUuzD6aXPVgEZul-22" style="edgeStyle=orthogonalEdgeStyle;rounded=0;orthogonalLoop=1;jettySize=auto;html=1;entryX=0.5;entryY=0;entryDx=0;entryDy=0;" edge="1" parent="hDzDasUuzD6aXPVgEZul-1" source="hDzDasUuzD6aXPVgEZul-17" target="hDzDasUuzD6aXPVgEZul-20">
          <mxGeometry relative="1" as="geometry" />
        </mxCell>
        <mxCell id="hDzDasUuzD6aXPVgEZul-23" value="OS" style="rounded=0;whiteSpace=wrap;html=1;" vertex="1" parent="hDzDasUuzD6aXPVgEZul-1">
          <mxGeometry x="70" y="580" width="200" height="30" as="geometry" />
        </mxCell>
        <mxCell id="hDzDasUuzD6aXPVgEZul-24" value="" style="rounded=0;whiteSpace=wrap;html=1;container=0;" vertex="1" parent="hDzDasUuzD6aXPVgEZul-1">
          <mxGeometry x="520" y="320" width="30" height="30" as="geometry" />
        </mxCell>
        <mxCell id="hDzDasUuzD6aXPVgEZul-25" value="" style="rounded=0;whiteSpace=wrap;html=1;container=0;" vertex="1" parent="hDzDasUuzD6aXPVgEZul-1">
          <mxGeometry x="490" y="270" width="250" height="360" as="geometry" />
        </mxCell>
        <mxCell id="hDzDasUuzD6aXPVgEZul-26" value="Node.js&lt;br&gt;Application" style="whiteSpace=wrap;html=1;aspect=fixed;movable=1;resizable=1;rotatable=1;deletable=1;editable=1;locked=0;connectable=1;container=0;" vertex="1" parent="hDzDasUuzD6aXPVgEZul-1">
          <mxGeometry x="520" y="320" width="70" height="70" as="geometry" />
        </mxCell>
        <mxCell id="hDzDasUuzD6aXPVgEZul-27" value="X&#39;s&amp;nbsp; Local Env" style="text;html=1;strokeColor=none;fillColor=none;align=center;verticalAlign=middle;whiteSpace=wrap;rounded=0;container=0;" vertex="1" parent="hDzDasUuzD6aXPVgEZul-1">
          <mxGeometry x="560" y="280" width="105" height="30" as="geometry" />
        </mxCell>
        <mxCell id="hDzDasUuzD6aXPVgEZul-28" value="Docker&amp;nbsp;&lt;br&gt;Runtime" style="whiteSpace=wrap;html=1;aspect=fixed;movable=1;resizable=1;rotatable=1;deletable=1;editable=1;locked=0;connectable=1;container=0;" vertex="1" parent="hDzDasUuzD6aXPVgEZul-1">
          <mxGeometry x="640" y="320" width="70" height="70" as="geometry" />
        </mxCell>
        <mxCell id="hDzDasUuzD6aXPVgEZul-29" value=".git" style="text;html=1;strokeColor=none;fillColor=none;align=center;verticalAlign=middle;whiteSpace=wrap;rounded=0;container=0;" vertex="1" parent="hDzDasUuzD6aXPVgEZul-1">
          <mxGeometry x="500" y="310" width="60" height="30" as="geometry" />
        </mxCell>
        <mxCell id="hDzDasUuzD6aXPVgEZul-30" style="edgeStyle=orthogonalEdgeStyle;rounded=0;orthogonalLoop=1;jettySize=auto;html=1;exitX=0.5;exitY=0;exitDx=0;exitDy=0;" edge="1" parent="hDzDasUuzD6aXPVgEZul-1" source="hDzDasUuzD6aXPVgEZul-31">
          <mxGeometry relative="1" as="geometry">
            <mxPoint x="389.5" y="410" as="targetPoint" />
          </mxGeometry>
        </mxCell>
        <mxCell id="hDzDasUuzD6aXPVgEZul-31" value="X&#39;s&lt;br&gt;Image" style="whiteSpace=wrap;html=1;aspect=fixed;" vertex="1" parent="hDzDasUuzD6aXPVgEZul-1">
          <mxGeometry x="350" y="450" width="80" height="80" as="geometry" />
        </mxCell>
        <mxCell id="hDzDasUuzD6aXPVgEZul-32" style="edgeStyle=orthogonalEdgeStyle;rounded=0;orthogonalLoop=1;jettySize=auto;html=1;entryX=0.5;entryY=1;entryDx=0;entryDy=0;" edge="1" parent="hDzDasUuzD6aXPVgEZul-1" source="hDzDasUuzD6aXPVgEZul-26" target="hDzDasUuzD6aXPVgEZul-28">
          <mxGeometry relative="1" as="geometry">
            <Array as="points">
              <mxPoint x="555" y="410" />
              <mxPoint x="675" y="410" />
            </Array>
          </mxGeometry>
        </mxCell>
        <mxCell id="hDzDasUuzD6aXPVgEZul-33" style="edgeStyle=orthogonalEdgeStyle;rounded=0;orthogonalLoop=1;jettySize=auto;html=1;entryX=0.6;entryY=0.005;entryDx=0;entryDy=0;entryPerimeter=0;" edge="1" parent="hDzDasUuzD6aXPVgEZul-1" source="hDzDasUuzD6aXPVgEZul-3" target="hDzDasUuzD6aXPVgEZul-25">
          <mxGeometry relative="1" as="geometry" />
        </mxCell>
        <mxCell id="hDzDasUuzD6aXPVgEZul-34" value="&lt;font style=&quot;font-size: 18px;&quot;&gt;Clone&lt;/font&gt;" style="edgeLabel;html=1;align=center;verticalAlign=middle;resizable=0;points=[];" vertex="1" connectable="0" parent="hDzDasUuzD6aXPVgEZul-33">
          <mxGeometry x="-0.4431" y="-1" relative="1" as="geometry">
            <mxPoint x="-1" as="offset" />
          </mxGeometry>
        </mxCell>
        <mxCell id="hDzDasUuzD6aXPVgEZul-36" value="" style="group" vertex="1" connectable="0" parent="1">
          <mxGeometry x="-670" y="305" width="860" height="795" as="geometry" />
        </mxCell>
        <mxCell id="hDzDasUuzD6aXPVgEZul-35" value="" style="whiteSpace=wrap;html=1;aspect=fixed;" vertex="1" parent="hDzDasUuzD6aXPVgEZul-36">
          <mxGeometry width="790.4046242774567" height="790.4046242774567" as="geometry" />
        </mxCell>
        <mxCell id="_OgdW5UWAWJ9PWswytjD-30" style="edgeStyle=orthogonalEdgeStyle;rounded=0;orthogonalLoop=1;jettySize=auto;html=1;" edge="1" parent="hDzDasUuzD6aXPVgEZul-36" source="_OgdW5UWAWJ9PWswytjD-13">
          <mxGeometry relative="1" as="geometry">
            <mxPoint x="630" y="217.23837209302326" as="targetPoint" />
          </mxGeometry>
        </mxCell>
        <mxCell id="_OgdW5UWAWJ9PWswytjD-31" value="&lt;font style=&quot;font-size: 14px;&quot;&gt;Clone&lt;/font&gt;" style="edgeLabel;html=1;align=center;verticalAlign=middle;resizable=0;points=[];" vertex="1" connectable="0" parent="_OgdW5UWAWJ9PWswytjD-30">
          <mxGeometry x="-0.3928" y="1" relative="1" as="geometry">
            <mxPoint as="offset" />
          </mxGeometry>
        </mxCell>
        <mxCell id="_OgdW5UWAWJ9PWswytjD-13" value="" style="dashed=0;outlineConnect=0;html=1;align=center;labelPosition=center;verticalLabelPosition=bottom;verticalAlign=top;shape=mxgraph.weblogos.github" vertex="1" parent="hDzDasUuzD6aXPVgEZul-36">
          <mxGeometry x="220" y="50.843023255813954" width="75" height="69.33139534883722" as="geometry" />
        </mxCell>
        <mxCell id="_OgdW5UWAWJ9PWswytjD-17" style="edgeStyle=orthogonalEdgeStyle;rounded=0;orthogonalLoop=1;jettySize=auto;html=1;exitX=0;exitY=0.5;exitDx=0;exitDy=0;" edge="1" parent="hDzDasUuzD6aXPVgEZul-36" source="_OgdW5UWAWJ9PWswytjD-1" target="_OgdW5UWAWJ9PWswytjD-13">
          <mxGeometry relative="1" as="geometry">
            <Array as="points">
              <mxPoint x="70" y="305.05813953488376" />
              <mxPoint x="70" y="195.97674418604652" />
              <mxPoint x="258" y="195.97674418604652" />
            </Array>
          </mxGeometry>
        </mxCell>
        <mxCell id="_OgdW5UWAWJ9PWswytjD-29" value="&lt;font style=&quot;font-size: 14px;&quot;&gt;Push&lt;/font&gt;" style="edgeLabel;html=1;align=center;verticalAlign=middle;resizable=0;points=[];" vertex="1" connectable="0" parent="_OgdW5UWAWJ9PWswytjD-17">
          <mxGeometry x="0.191" y="4" relative="1" as="geometry">
            <mxPoint as="offset" />
          </mxGeometry>
        </mxCell>
        <mxCell id="_OgdW5UWAWJ9PWswytjD-34" value="" style="group" vertex="1" connectable="0" parent="hDzDasUuzD6aXPVgEZul-36">
          <mxGeometry x="500" y="217.23837209302326" width="250" height="332.7906976744186" as="geometry" />
        </mxCell>
        <mxCell id="_OgdW5UWAWJ9PWswytjD-19" value="" style="rounded=0;whiteSpace=wrap;html=1;container=0;" vertex="1" parent="_OgdW5UWAWJ9PWswytjD-34">
          <mxGeometry x="30" y="46.22093023255814" width="30" height="27.732558139534884" as="geometry" />
        </mxCell>
        <mxCell id="_OgdW5UWAWJ9PWswytjD-20" value="" style="rounded=0;whiteSpace=wrap;html=1;container=0;" vertex="1" parent="_OgdW5UWAWJ9PWswytjD-34">
          <mxGeometry width="250" height="332.7906976744186" as="geometry" />
        </mxCell>
        <mxCell id="_OgdW5UWAWJ9PWswytjD-21" value="Node.js&lt;br&gt;Application" style="whiteSpace=wrap;html=1;aspect=fixed;movable=1;resizable=1;rotatable=1;deletable=1;editable=1;locked=0;connectable=1;container=0;" vertex="1" parent="_OgdW5UWAWJ9PWswytjD-34">
          <mxGeometry x="30" y="46.22093023255814" width="64.33526011560694" height="64.33526011560694" as="geometry" />
        </mxCell>
        <mxCell id="_OgdW5UWAWJ9PWswytjD-22" value="X&#39;s&amp;nbsp; Local Env" style="text;html=1;strokeColor=none;fillColor=none;align=center;verticalAlign=middle;whiteSpace=wrap;rounded=0;container=0;" vertex="1" parent="_OgdW5UWAWJ9PWswytjD-34">
          <mxGeometry x="70" y="9.24418604651163" width="105" height="27.732558139534884" as="geometry" />
        </mxCell>
        <mxCell id="_OgdW5UWAWJ9PWswytjD-23" value="Node.js&lt;br&gt;RunTime" style="whiteSpace=wrap;html=1;aspect=fixed;movable=1;resizable=1;rotatable=1;deletable=1;editable=1;locked=0;connectable=1;container=0;" vertex="1" parent="_OgdW5UWAWJ9PWswytjD-34">
          <mxGeometry x="150" y="46.22093023255814" width="64.33526011560694" height="64.33526011560694" as="geometry" />
        </mxCell>
        <mxCell id="_OgdW5UWAWJ9PWswytjD-28" value=".git" style="text;html=1;strokeColor=none;fillColor=none;align=center;verticalAlign=middle;whiteSpace=wrap;rounded=0;container=0;" vertex="1" parent="_OgdW5UWAWJ9PWswytjD-34">
          <mxGeometry x="10" y="36.97674418604652" width="60" height="27.732558139534884" as="geometry" />
        </mxCell>
        <mxCell id="_OgdW5UWAWJ9PWswytjD-37" value="MongoDB&lt;br&gt;Databse" style="whiteSpace=wrap;html=1;aspect=fixed;movable=1;resizable=1;rotatable=1;deletable=1;editable=1;locked=0;connectable=1;direction=south;container=0;" vertex="1" parent="_OgdW5UWAWJ9PWswytjD-34">
          <mxGeometry x="30" y="147.90697674418607" width="64.33526011560694" height="64.33526011560694" as="geometry" />
        </mxCell>
        <mxCell id="_OgdW5UWAWJ9PWswytjD-38" value="" style="rounded=0;whiteSpace=wrap;html=1;" vertex="1" parent="_OgdW5UWAWJ9PWswytjD-34">
          <mxGeometry x="30" y="143.28488372093022" width="30" height="23.11046511627907" as="geometry" />
        </mxCell>
        <mxCell id="_OgdW5UWAWJ9PWswytjD-39" value="v2" style="text;html=1;strokeColor=none;fillColor=none;align=center;verticalAlign=middle;whiteSpace=wrap;rounded=0;" vertex="1" parent="_OgdW5UWAWJ9PWswytjD-34">
          <mxGeometry x="15" y="143.28488372093022" width="60" height="23.11046511627907" as="geometry" />
        </mxCell>
        <mxCell id="_OgdW5UWAWJ9PWswytjD-11" value="" style="rounded=0;whiteSpace=wrap;html=1;container=0;" vertex="1" parent="hDzDasUuzD6aXPVgEZul-36">
          <mxGeometry x="120" y="272.70348837209303" width="30" height="27.732558139534884" as="geometry" />
        </mxCell>
        <mxCell id="_OgdW5UWAWJ9PWswytjD-2" value="" style="rounded=0;whiteSpace=wrap;html=1;container=0;" vertex="1" parent="hDzDasUuzD6aXPVgEZul-36">
          <mxGeometry x="90" y="226.4825581395349" width="250" height="332.7906976744186" as="geometry" />
        </mxCell>
        <mxCell id="_OgdW5UWAWJ9PWswytjD-1" value="Node.js&lt;br&gt;Application" style="whiteSpace=wrap;html=1;aspect=fixed;movable=1;resizable=1;rotatable=1;deletable=1;editable=1;locked=0;connectable=1;container=0;" vertex="1" parent="hDzDasUuzD6aXPVgEZul-36">
          <mxGeometry x="120" y="272.70348837209303" width="64.33526011560694" height="64.33526011560694" as="geometry" />
        </mxCell>
        <mxCell id="_OgdW5UWAWJ9PWswytjD-4" value="X&#39;s&amp;nbsp; Local Env" style="text;html=1;strokeColor=none;fillColor=none;align=center;verticalAlign=middle;whiteSpace=wrap;rounded=0;container=0;" vertex="1" parent="hDzDasUuzD6aXPVgEZul-36">
          <mxGeometry x="160" y="235.72674418604652" width="105" height="27.732558139534884" as="geometry" />
        </mxCell>
        <mxCell id="_OgdW5UWAWJ9PWswytjD-5" value="Node.js&lt;br&gt;RunTime" style="whiteSpace=wrap;html=1;aspect=fixed;movable=1;resizable=1;rotatable=1;deletable=1;editable=1;locked=0;connectable=1;container=0;" vertex="1" parent="hDzDasUuzD6aXPVgEZul-36">
          <mxGeometry x="240" y="272.70348837209303" width="64.33526011560694" height="64.33526011560694" as="geometry" />
        </mxCell>
        <mxCell id="_OgdW5UWAWJ9PWswytjD-6" value="MongoDB&lt;br&gt;Databse" style="whiteSpace=wrap;html=1;aspect=fixed;movable=1;resizable=1;rotatable=1;deletable=1;editable=1;locked=0;connectable=1;direction=south;container=0;" vertex="1" parent="hDzDasUuzD6aXPVgEZul-36">
          <mxGeometry x="120" y="365.1453488372093" width="64.33526011560694" height="64.33526011560694" as="geometry" />
        </mxCell>
        <mxCell id="_OgdW5UWAWJ9PWswytjD-7" value="Rabbit MQ" style="whiteSpace=wrap;html=1;aspect=fixed;movable=1;resizable=1;rotatable=1;deletable=1;editable=1;locked=0;connectable=1;direction=south;container=0;" vertex="1" parent="hDzDasUuzD6aXPVgEZul-36">
          <mxGeometry x="240" y="365.1453488372093" width="64.33526011560694" height="64.33526011560694" as="geometry" />
        </mxCell>
        <mxCell id="_OgdW5UWAWJ9PWswytjD-8" value="Redis" style="whiteSpace=wrap;html=1;aspect=fixed;movable=1;resizable=1;rotatable=1;deletable=1;editable=1;locked=0;connectable=1;direction=south;container=0;" vertex="1" parent="hDzDasUuzD6aXPVgEZul-36">
          <mxGeometry x="120" y="457.5872093023256" width="64.33526011560694" height="64.33526011560694" as="geometry" />
        </mxCell>
        <mxCell id="_OgdW5UWAWJ9PWswytjD-12" value=".git" style="text;html=1;strokeColor=none;fillColor=none;align=center;verticalAlign=middle;whiteSpace=wrap;rounded=0;container=0;" vertex="1" parent="hDzDasUuzD6aXPVgEZul-36">
          <mxGeometry x="100" y="263.4593023255814" width="60" height="27.732558139534884" as="geometry" />
        </mxCell>
        <mxCell id="_OgdW5UWAWJ9PWswytjD-35" value="" style="rounded=0;whiteSpace=wrap;html=1;container=0;" vertex="1" parent="hDzDasUuzD6aXPVgEZul-36">
          <mxGeometry x="120" y="365.1453488372093" width="40" height="18.48837209302326" as="geometry" />
        </mxCell>
        <mxCell id="_OgdW5UWAWJ9PWswytjD-36" value="v3" style="text;html=1;strokeColor=none;fillColor=none;align=center;verticalAlign=middle;whiteSpace=wrap;rounded=0;container=0;" vertex="1" parent="hDzDasUuzD6aXPVgEZul-36">
          <mxGeometry x="105" y="360.5232558139535" width="60" height="27.732558139534884" as="geometry" />
        </mxCell>
        <mxCell id="hDzDasUuzD6aXPVgEZul-37" value="&lt;font style=&quot;font-size: 62px;&quot;&gt;Example -1&lt;/font&gt;" style="text;html=1;strokeColor=none;fillColor=none;align=center;verticalAlign=middle;whiteSpace=wrap;rounded=0;" vertex="1" parent="1">
          <mxGeometry x="-380" y="230" width="320" height="30" as="geometry" />
        </mxCell>
        <mxCell id="hDzDasUuzD6aXPVgEZul-39" value="&lt;font style=&quot;font-size: 62px;&quot;&gt;Example -2&lt;/font&gt;" style="text;html=1;strokeColor=none;fillColor=none;align=center;verticalAlign=middle;whiteSpace=wrap;rounded=0;" vertex="1" parent="1">
          <mxGeometry x="675" y="250" width="320" height="30" as="geometry" />
        </mxCell>
      </root>
    </mxGraphModel>
  </diagram>
</mxfile>
